<?xml version="1.0" encoding="UTF-8"?>
<svg xmlns="http://www.w3.org/2000/svg" xmlns:xlink="http://www.w3.org/1999/xlink" width="224px" height="150px" viewBox="0 0 223 150" version="1.1">
<g id="surface1">
<path style=" stroke:none;fill-rule:nonzero;fill:rgb(18.431373%,18.039216%,25.490196%);fill-opacity:1;" d="M 177.5625 66.429688 L 178.226562 61.09375 C 178.714844 57.152344 182.292969 54.351562 186.21875 54.84375 C 190.140625 55.335938 192.929688 58.933594 192.4375 62.878906 L 191.777344 68.210938 C 191.710938 68.738281 191.230469 69.113281 190.703125 69.046875 L 178.398438 67.503906 C 177.871094 67.441406 177.5 66.957031 177.5625 66.429688 Z M 177.5625 66.429688 "/>
<path style=" stroke:none;fill-rule:nonzero;fill:rgb(100%,72.156863%,72.156863%);fill-opacity:1;" d="M 188.710938 62.738281 C 188.710938 65.65625 186.359375 68.015625 183.457031 68.015625 C 180.554688 68.015625 178.207031 65.65625 178.207031 62.738281 C 178.207031 59.828125 180.554688 57.460938 183.457031 57.460938 C 186.359375 57.460938 188.710938 59.828125 188.710938 62.738281 Z M 188.710938 62.738281 "/>
<path style=" stroke:none;fill-rule:nonzero;fill:rgb(18.431373%,18.039216%,25.490196%);fill-opacity:1;" d="M 176.492188 61.3125 C 176.882812 58.191406 179.710938 55.980469 182.816406 56.363281 L 183.875 56.5 C 186.980469 56.894531 189.179688 59.734375 188.796875 62.851562 L 188.785156 62.960938 L 186.539062 62.683594 L 186.042969 60.433594 L 185.621094 62.5625 L 184.460938 62.417969 L 184.214844 61.289062 L 184 62.363281 L 176.480469 61.417969 Z M 176.492188 61.3125 "/>
<path style=" stroke:none;fill-rule:nonzero;fill:rgb(100%,72.156863%,72.156863%);fill-opacity:1;" d="M 157.777344 81.566406 C 158.101562 82.210938 158.691406 82.675781 159.386719 82.835938 C 160.089844 82.992188 160.820312 82.835938 161.390625 82.402344 L 166.160156 85.214844 L 168.566406 82.714844 L 161.773438 78.84375 C 160.96875 77.90625 159.59375 77.730469 158.574219 78.417969 C 157.550781 79.113281 157.210938 80.464844 157.777344 81.566406 Z M 157.777344 81.566406 "/>
<path style=" stroke:none;fill-rule:nonzero;fill:rgb(24.705882%,23.921569%,33.72549%);fill-opacity:1;" d="M 173.410156 86.613281 C 169.890625 86.613281 163.699219 85.03125 163.355469 84.945312 L 163.246094 84.917969 L 164.222656 79.957031 L 173.679688 81.835938 L 178.8125 74.5625 L 184.710938 73.960938 L 184.546875 74.179688 C 184.472656 74.277344 176.867188 84.339844 175.683594 86.027344 C 175.386719 86.453125 174.53125 86.613281 173.410156 86.613281 Z M 173.410156 86.613281 "/>
<path style=" stroke:none;fill-rule:nonzero;fill:rgb(24.705882%,23.921569%,33.72549%);fill-opacity:1;" d="M 174.347656 105.222656 L 174.210938 105.160156 C 174.179688 105.144531 171.191406 103.679688 169.640625 100.828125 C 168.105469 97.992188 175.316406 85.945312 175.816406 85.109375 L 175.824219 81.285156 L 178.421875 74.242188 L 181.726562 72.363281 L 178.886719 79.027344 Z M 174.347656 105.222656 "/>
<path style=" stroke:none;fill-rule:nonzero;fill:rgb(100%,72.156863%,72.156863%);fill-opacity:1;" d="M 171.035156 146.335938 L 167.871094 146.335938 L 166.371094 134.074219 L 171.035156 134.074219 Z M 171.035156 146.335938 "/>
<path style=" stroke:none;fill-rule:nonzero;fill:rgb(18.431373%,18.039216%,25.490196%);fill-opacity:1;" d="M 171.839844 149.417969 L 161.644531 149.417969 L 161.644531 149.289062 C 161.644531 147.082031 163.421875 145.300781 165.613281 145.300781 L 171.839844 145.300781 Z M 171.839844 149.417969 "/>
<path style=" stroke:none;fill-rule:nonzero;fill:rgb(100%,72.156863%,72.156863%);fill-opacity:1;" d="M 205.003906 143.550781 L 201.996094 144.542969 L 196.769531 133.359375 L 201.207031 131.898438 Z M 205.003906 143.550781 "/>
<path style=" stroke:none;fill-rule:nonzero;fill:rgb(18.431373%,18.039216%,25.490196%);fill-opacity:1;" d="M 206.722656 146.226562 L 197.03125 149.417969 L 196.992188 149.296875 C 196.308594 147.203125 197.445312 144.949219 199.527344 144.261719 L 205.449219 142.3125 Z M 206.722656 146.226562 "/>
<path style=" stroke:none;fill-rule:nonzero;fill:rgb(18.431373%,18.039216%,25.490196%);fill-opacity:1;" d="M 198.878906 141.546875 L 189.863281 126.417969 L 182.253906 110.253906 L 175.40625 124.535156 L 172.6875 143.027344 L 163.148438 143.15625 L 163.183594 143.007812 L 177.78125 84.695312 L 189.21875 86.410156 L 188.695312 93.996094 L 189.003906 94.441406 C 191.589844 98.128906 194.261719 101.945312 192.730469 106.054688 L 197.070312 119.015625 L 206.683594 140.59375 Z M 198.878906 141.546875 "/>
<path style=" stroke:none;fill-rule:nonzero;fill:rgb(39.607843%,20.392157%,58.823529%);fill-opacity:1;" d="M 178.304688 97.332031 C 176.648438 97.332031 174.757812 95.429688 175.738281 92.183594 L 175.671875 92.136719 L 178.03125 81.671875 C 175.972656 78.722656 178.6875 76.28125 178.941406 76.0625 L 180.234375 73.722656 L 185.945312 70.085938 L 188.828125 94.203125 L 188.789062 94.25 C 186.703125 96.25 179.695312 97.332031 178.304688 97.332031 Z M 178.304688 97.332031 "/>
<path style=" stroke:none;fill-rule:nonzero;fill:rgb(24.705882%,23.921569%,33.72549%);fill-opacity:1;" d="M 189.996094 102.773438 C 189.769531 102.773438 189.542969 102.753906 189.324219 102.699219 C 189.097656 102.644531 188.738281 102.363281 188.183594 100.546875 C 185.976562 93.316406 183.371094 71.578125 185.265625 69.445312 L 185.308594 69.398438 L 188.417969 69.917969 C 188.675781 69.726562 190.027344 68.777344 191.285156 68.945312 C 191.804688 69.007812 192.277344 69.289062 192.582031 69.714844 L 192.601562 69.742188 L 193.597656 83.910156 L 197.222656 100.582031 L 197.136719 100.621094 C 196.929688 100.71875 192.394531 102.773438 189.996094 102.773438 Z M 189.996094 102.773438 "/>
<path style=" stroke:none;fill-rule:nonzero;fill:rgb(100%,72.156863%,72.156863%);fill-opacity:1;" d="M 187.902344 97.238281 C 188.617188 97.214844 189.289062 96.871094 189.730469 96.304688 C 190.167969 95.738281 190.339844 95.003906 190.191406 94.300781 L 194.742188 91.148438 L 193.507812 87.898438 L 187.144531 92.441406 C 185.960938 92.777344 185.210938 93.957031 185.402344 95.179688 C 185.597656 96.398438 186.675781 97.289062 187.902344 97.238281 Z M 187.902344 97.238281 "/>
<path style=" stroke:none;fill-rule:nonzero;fill:rgb(24.705882%,23.921569%,33.72549%);fill-opacity:1;" d="M 193.238281 93.675781 L 189.183594 90.683594 L 194.886719 82.871094 L 190.507812 75.113281 L 192.46875 69.492188 L 192.59375 69.730469 C 192.652344 69.84375 198.492188 81.03125 199.511719 82.824219 C 200.574219 84.683594 193.609375 93.226562 193.308594 93.589844 Z M 193.238281 93.675781 "/>
<path style=" stroke:none;fill-rule:nonzero;fill:rgb(90.196078%,90.196078%,90.196078%);fill-opacity:1;" d="M 102.035156 128.835938 L 98.585938 127.375 L 96.214844 109.984375 L 64.695312 109.984375 L 62.125 127.304688 L 59.042969 128.859375 C 58.738281 129.011719 58.578125 129.351562 58.65625 129.683594 C 58.734375 130.015625 59.03125 130.253906 59.371094 130.253906 L 101.753906 130.253906 C 102.101562 130.253906 102.402344 130.007812 102.472656 129.664062 C 102.539062 129.316406 102.359375 128.972656 102.035156 128.835938 Z M 102.035156 128.835938 "/>
<path style=" stroke:none;fill-rule:nonzero;fill:rgb(80%,80%,80%);fill-opacity:1;" d="M 158.054688 112.300781 L 3.203125 112.300781 C 1.511719 112.300781 0.140625 110.917969 0.140625 109.214844 L 0.140625 87.265625 L 161.117188 87.265625 L 161.117188 109.214844 C 161.117188 110.917969 159.75 112.300781 158.054688 112.300781 Z M 158.054688 112.300781 "/>
<path style=" stroke:none;fill-rule:nonzero;fill:rgb(24.705882%,23.921569%,33.72549%);fill-opacity:1;" d="M 161.277344 97.640625 L 0 97.640625 L 0 3.714844 C 0 1.664062 1.65625 0 3.699219 0 L 157.582031 0 C 159.625 0 161.273438 1.664062 161.277344 3.714844 Z M 161.277344 97.640625 "/>
<path style=" stroke:none;fill-rule:nonzero;fill:rgb(100%,100%,100%);fill-opacity:1;" d="M 151.648438 90.824219 L 9.632812 90.824219 C 8.058594 90.820312 6.78125 89.539062 6.78125 87.957031 L 6.78125 9.679688 C 6.78125 8.097656 8.058594 6.816406 9.632812 6.816406 L 151.648438 6.816406 C 153.222656 6.816406 154.496094 8.097656 154.496094 9.679688 L 154.496094 87.957031 C 154.496094 89.539062 153.222656 90.820312 151.648438 90.824219 Z M 151.648438 90.824219 "/>
<path style=" stroke:none;fill-rule:nonzero;fill:rgb(80%,80%,80%);fill-opacity:1;" d="M 120.46875 130.4375 L 40.667969 130.4375 C 40.496094 130.4375 40.347656 130.328125 40.304688 130.164062 C 40.273438 130.054688 40.296875 129.9375 40.367188 129.851562 C 40.4375 129.761719 40.539062 129.710938 40.652344 129.710938 L 120.4375 129.710938 C 120.617188 129.703125 120.773438 129.820312 120.820312 129.992188 C 120.84375 130.101562 120.816406 130.214844 120.75 130.296875 C 120.679688 130.382812 120.578125 130.4375 120.46875 130.4375 Z M 120.46875 130.4375 "/>
<path style=" stroke:none;fill-rule:nonzero;fill:rgb(94.901961%,94.901961%,94.901961%);fill-opacity:1;" d="M 115.84375 19.472656 L 150.128906 19.472656 L 150.128906 45.804688 L 115.84375 45.804688 Z M 115.84375 19.472656 "/>
<path style=" stroke:none;fill-rule:nonzero;fill:rgb(100%,100%,100%);fill-opacity:1;" d="M 117.546875 20.777344 L 148.425781 20.777344 L 148.425781 44.496094 L 117.546875 44.496094 Z M 117.546875 20.777344 "/>
<path style=" stroke:none;fill-rule:nonzero;fill:rgb(24.705882%,23.921569%,33.72549%);fill-opacity:1;" d="M 133.53125 38.371094 C 133.53125 38.371094 133.539062 38.371094 133.539062 38.371094 C 137.875 38.144531 141.296875 34.566406 141.34375 30.199219 C 141.390625 25.832031 138.058594 22.179688 133.726562 21.855469 C 133.671875 21.847656 133.621094 21.863281 133.582031 21.902344 C 133.542969 21.9375 133.519531 21.984375 133.519531 22.039062 L 133.34375 38.183594 C 133.34375 38.28125 133.425781 38.371094 133.53125 38.371094 Z M 133.53125 38.371094 "/>
<path style=" stroke:none;fill-rule:nonzero;fill:rgb(90.196078%,90.196078%,90.196078%);fill-opacity:1;" d="M 127.070312 24.523438 C 127.136719 24.523438 127.195312 24.546875 127.242188 24.59375 L 132.769531 30.277344 C 132.816406 30.324219 132.835938 30.386719 132.835938 30.453125 L 132.75 38.171875 C 132.75 38.238281 132.722656 38.304688 132.675781 38.347656 C 132.625 38.394531 132.558594 38.417969 132.492188 38.414062 C 129.359375 38.179688 126.621094 36.179688 125.4375 33.25 C 124.25 30.324219 124.808594 26.976562 126.886719 24.605469 C 126.929688 24.550781 126.996094 24.523438 127.0625 24.523438 C 127.066406 24.523438 127.066406 24.523438 127.070312 24.523438 Z M 127.070312 24.523438 "/>
<path style=" stroke:none;fill-rule:nonzero;fill:rgb(39.607843%,20.392157%,58.823529%);fill-opacity:1;" d="M 132.695312 21.785156 C 132.753906 21.785156 132.816406 21.8125 132.859375 21.855469 C 132.90625 21.898438 132.933594 21.964844 132.933594 22.03125 L 132.855469 29 C 132.851562 29.101562 132.792969 29.1875 132.703125 29.222656 C 132.609375 29.261719 132.511719 29.234375 132.441406 29.164062 L 127.617188 24.207031 C 127.570312 24.164062 127.546875 24.097656 127.546875 24.03125 C 127.550781 23.960938 127.582031 23.902344 127.628906 23.855469 C 129.03125 22.617188 130.8125 21.886719 132.675781 21.785156 C 132.679688 21.785156 132.683594 21.785156 132.695312 21.785156 Z M 132.695312 21.785156 "/>
<path style=" stroke:none;fill-rule:nonzero;fill:rgb(39.607843%,20.392157%,58.823529%);fill-opacity:1;" d="M 130.207031 41.71875 C 130.199219 42.539062 129.527344 43.199219 128.710938 43.1875 C 127.894531 43.179688 127.242188 42.507812 127.25 41.683594 C 127.257812 40.863281 127.929688 40.207031 128.746094 40.214844 C 129.5625 40.222656 130.214844 40.898438 130.207031 41.71875 Z M 130.207031 41.71875 "/>
<path style=" stroke:none;fill-rule:nonzero;fill:rgb(24.705882%,23.921569%,33.72549%);fill-opacity:1;" d="M 134.429688 41.769531 C 134.421875 42.585938 133.753906 43.246094 132.9375 43.238281 C 132.117188 43.226562 131.464844 42.554688 131.472656 41.734375 C 131.484375 40.910156 132.152344 40.253906 132.972656 40.261719 C 133.785156 40.273438 134.441406 40.945312 134.429688 41.769531 Z M 134.429688 41.769531 "/>
<path style=" stroke:none;fill-rule:nonzero;fill:rgb(90.196078%,90.196078%,90.196078%);fill-opacity:1;" d="M 138.65625 41.8125 C 138.648438 42.632812 137.976562 43.292969 137.164062 43.285156 C 136.34375 43.273438 135.691406 42.597656 135.699219 41.78125 C 135.707031 40.957031 136.378906 40.304688 137.195312 40.3125 C 138.011719 40.320312 138.664062 40.992188 138.65625 41.8125 Z M 138.65625 41.8125 "/>
<path style=" stroke:none;fill-rule:nonzero;fill:rgb(94.901961%,94.901961%,94.901961%);fill-opacity:1;" d="M 115.480469 49.949219 L 149.765625 49.949219 L 149.765625 76.28125 L 115.480469 76.28125 Z M 115.480469 49.949219 "/>
<path style=" stroke:none;fill-rule:nonzero;fill:rgb(100%,100%,100%);fill-opacity:1;" d="M 117.183594 51.257812 L 148.0625 51.257812 L 148.0625 74.972656 L 117.183594 74.972656 Z M 117.183594 51.257812 "/>
<path style=" stroke:none;fill-rule:nonzero;fill:rgb(24.705882%,23.921569%,33.72549%);fill-opacity:1;" d="M 123.703125 57.761719 C 123.703125 58.476562 123.132812 59.054688 122.421875 59.054688 C 121.71875 59.054688 121.144531 58.476562 121.144531 57.761719 C 121.144531 57.050781 121.71875 56.472656 122.421875 56.472656 C 123.132812 56.472656 123.703125 57.050781 123.703125 57.761719 Z M 123.703125 57.761719 "/>
<path style=" stroke:none;fill-rule:nonzero;fill:rgb(24.705882%,23.921569%,33.72549%);fill-opacity:1;" d="M 143.023438 56.757812 C 143.339844 56.757812 143.625 56.921875 143.777344 57.195312 C 143.933594 57.464844 143.933594 57.800781 143.777344 58.070312 C 143.625 58.339844 143.339844 58.507812 143.023438 58.507812 L 129.539062 58.507812 C 129.0625 58.507812 128.667969 58.117188 128.667969 57.632812 C 128.667969 57.152344 129.0625 56.757812 129.539062 56.757812 L 143.023438 56.757812 M 143.023438 56.546875 L 129.539062 56.546875 C 129.152344 56.546875 128.796875 56.753906 128.597656 57.089844 C 128.40625 57.425781 128.40625 57.839844 128.597656 58.179688 C 128.796875 58.515625 129.152344 58.726562 129.539062 58.71875 L 143.023438 58.71875 C 143.414062 58.726562 143.769531 58.515625 143.964844 58.179688 C 144.15625 57.839844 144.15625 57.425781 143.964844 57.089844 C 143.769531 56.753906 143.414062 56.546875 143.023438 56.546875 Z M 143.023438 56.546875 "/>
<path style=" stroke:none;fill-rule:nonzero;fill:rgb(39.607843%,20.392157%,58.823529%);fill-opacity:1;" d="M 137.703125 58.71875 L 127.554688 58.71875 C 126.953125 58.71875 126.46875 58.234375 126.46875 57.632812 C 126.46875 57.03125 126.953125 56.546875 127.554688 56.546875 L 137.703125 56.546875 C 138.304688 56.546875 138.785156 57.03125 138.785156 57.632812 C 138.785156 58.234375 138.304688 58.71875 137.703125 58.71875 Z M 137.703125 58.71875 "/>
<path style=" stroke:none;fill-rule:nonzero;fill:rgb(24.705882%,23.921569%,33.72549%);fill-opacity:1;" d="M 123.703125 63.113281 C 123.703125 63.828125 123.132812 64.40625 122.421875 64.40625 C 121.71875 64.40625 121.144531 63.828125 121.144531 63.113281 C 121.144531 62.402344 121.71875 61.824219 122.421875 61.824219 C 123.132812 61.824219 123.703125 62.402344 123.703125 63.113281 Z M 123.703125 63.113281 "/>
<path style=" stroke:none;fill-rule:nonzero;fill:rgb(24.705882%,23.921569%,33.72549%);fill-opacity:1;" d="M 143.023438 62.109375 C 143.339844 62.109375 143.625 62.277344 143.777344 62.546875 C 143.933594 62.816406 143.933594 63.15625 143.777344 63.421875 C 143.625 63.691406 143.339844 63.859375 143.023438 63.859375 L 129.539062 63.859375 C 129.0625 63.859375 128.667969 63.46875 128.667969 62.984375 C 128.667969 62.503906 129.0625 62.109375 129.539062 62.109375 L 143.023438 62.109375 M 143.023438 61.898438 L 129.539062 61.898438 C 128.945312 61.898438 128.460938 62.386719 128.460938 62.984375 C 128.460938 63.585938 128.945312 64.074219 129.539062 64.074219 L 143.023438 64.074219 C 143.625 64.074219 144.109375 63.585938 144.109375 62.984375 C 144.109375 62.386719 143.625 61.898438 143.023438 61.898438 Z M 143.023438 61.898438 "/>
<path style=" stroke:none;fill-rule:nonzero;fill:rgb(39.607843%,20.392157%,58.823529%);fill-opacity:1;" d="M 141.539062 64.074219 L 127.554688 64.074219 C 126.953125 64.074219 126.46875 63.585938 126.46875 62.984375 C 126.46875 62.386719 126.953125 61.898438 127.554688 61.898438 L 141.539062 61.898438 C 142.136719 61.898438 142.621094 62.386719 142.621094 62.984375 C 142.621094 63.585938 142.136719 64.074219 141.539062 64.074219 Z M 141.539062 64.074219 "/>
<path style=" stroke:none;fill-rule:nonzero;fill:rgb(24.705882%,23.921569%,33.72549%);fill-opacity:1;" d="M 123.703125 68.46875 C 123.703125 69.179688 123.132812 69.757812 122.421875 69.757812 C 121.71875 69.757812 121.144531 69.179688 121.144531 68.46875 C 121.144531 67.753906 121.71875 67.175781 122.421875 67.175781 C 123.132812 67.175781 123.703125 67.753906 123.703125 68.46875 Z M 123.703125 68.46875 "/>
<path style=" stroke:none;fill-rule:nonzero;fill:rgb(24.705882%,23.921569%,33.72549%);fill-opacity:1;" d="M 143.023438 67.460938 C 143.339844 67.460938 143.625 67.628906 143.777344 67.898438 C 143.933594 68.167969 143.933594 68.507812 143.777344 68.773438 C 143.625 69.042969 143.339844 69.210938 143.023438 69.210938 L 129.539062 69.210938 C 129.0625 69.210938 128.667969 68.820312 128.667969 68.335938 C 128.667969 67.855469 129.0625 67.460938 129.539062 67.460938 L 143.023438 67.460938 M 143.023438 67.25 L 129.539062 67.25 C 128.945312 67.25 128.460938 67.738281 128.460938 68.335938 C 128.460938 68.941406 128.945312 69.425781 129.539062 69.425781 L 143.023438 69.425781 C 143.625 69.425781 144.109375 68.941406 144.109375 68.335938 C 144.109375 67.738281 143.625 67.25 143.023438 67.25 Z M 143.023438 67.25 "/>
<path style=" stroke:none;fill-rule:nonzero;fill:rgb(39.607843%,20.392157%,58.823529%);fill-opacity:1;" d="M 133.234375 69.425781 L 127.554688 69.425781 C 127.167969 69.429688 126.808594 69.21875 126.613281 68.882812 C 126.421875 68.546875 126.421875 68.128906 126.613281 67.792969 C 126.808594 67.457031 127.167969 67.25 127.554688 67.25 L 133.234375 67.25 C 133.832031 67.25 134.3125 67.738281 134.3125 68.335938 C 134.3125 68.941406 133.832031 69.425781 133.234375 69.425781 Z M 133.234375 69.425781 "/>
<path style=" stroke:none;fill-rule:nonzero;fill:rgb(94.901961%,94.901961%,94.901961%);fill-opacity:1;" d="M 12.105469 24.128906 L 107.902344 24.128906 L 107.902344 73.484375 L 12.105469 73.484375 Z M 12.105469 24.128906 "/>
<path style=" stroke:none;fill-rule:nonzero;fill:rgb(100%,100%,100%);fill-opacity:1;" d="M 15.296875 26.582031 L 104.707031 26.582031 L 104.707031 71.03125 L 15.296875 71.03125 Z M 15.296875 26.582031 "/>
<path style=" stroke:none;fill-rule:nonzero;fill:rgb(24.705882%,23.921569%,33.72549%);fill-opacity:1;" d="M 93.621094 64.253906 L 28.441406 64.253906 C 28.328125 64.253906 28.238281 64.15625 28.238281 64.042969 L 28.238281 32.640625 C 28.238281 32.527344 28.328125 32.4375 28.441406 32.4375 C 28.554688 32.4375 28.644531 32.527344 28.644531 32.640625 L 28.644531 63.839844 L 93.621094 63.839844 C 93.730469 63.839844 93.824219 63.933594 93.824219 64.042969 C 93.824219 64.15625 93.730469 64.253906 93.621094 64.253906 Z M 93.621094 64.253906 "/>
<path style=" stroke:none;fill-rule:nonzero;fill:rgb(39.607843%,20.392157%,58.823529%);fill-opacity:1;" d="M 42.367188 61.996094 L 36.4375 61.996094 C 36.105469 61.996094 35.832031 61.71875 35.832031 61.382812 L 35.832031 53.171875 C 35.832031 52.835938 36.105469 52.5625 36.4375 52.558594 L 42.367188 52.558594 C 42.699219 52.5625 42.972656 52.835938 42.972656 53.171875 L 42.972656 61.382812 C 42.972656 61.71875 42.699219 61.996094 42.367188 61.996094 Z M 42.367188 61.996094 "/>
<path style=" stroke:none;fill-rule:nonzero;fill:rgb(39.607843%,20.392157%,58.823529%);fill-opacity:1;" d="M 53.179688 61.996094 L 47.25 61.996094 C 46.917969 61.996094 46.648438 61.71875 46.644531 61.382812 L 46.644531 45.378906 C 46.648438 45.042969 46.917969 44.773438 47.25 44.773438 L 53.179688 44.773438 C 53.511719 44.773438 53.78125 45.042969 53.78125 45.378906 L 53.78125 61.382812 C 53.78125 61.71875 53.511719 61.996094 53.179688 61.996094 Z M 53.179688 61.996094 "/>
<path style=" stroke:none;fill-rule:nonzero;fill:rgb(39.607843%,20.392157%,58.823529%);fill-opacity:1;" d="M 63.992188 61.996094 L 58.058594 61.996094 C 57.726562 61.996094 57.457031 61.71875 57.457031 61.382812 L 57.457031 53.171875 C 57.457031 52.835938 57.726562 52.5625 58.058594 52.558594 L 63.992188 52.558594 C 64.320312 52.5625 64.589844 52.835938 64.589844 53.171875 L 64.589844 61.382812 C 64.589844 61.71875 64.320312 61.996094 63.992188 61.996094 Z M 63.992188 61.996094 "/>
<path style=" stroke:none;fill-rule:nonzero;fill:rgb(39.607843%,20.392157%,58.823529%);fill-opacity:1;" d="M 74.800781 61.996094 L 68.867188 61.996094 C 68.546875 62 68.277344 61.742188 68.269531 61.414062 L 68.269531 42.273438 C 68.277344 41.945312 68.546875 41.6875 68.867188 41.695312 L 74.800781 41.695312 C 75.128906 41.6875 75.398438 41.945312 75.40625 42.273438 L 75.40625 61.414062 C 75.398438 61.742188 75.128906 62 74.800781 61.996094 Z M 74.800781 61.996094 "/>
<path style=" stroke:none;fill-rule:nonzero;fill:rgb(39.607843%,20.392157%,58.823529%);fill-opacity:1;" d="M 85.609375 61.996094 L 79.683594 61.996094 C 79.347656 61.996094 79.078125 61.71875 79.078125 61.382812 L 79.078125 36.765625 C 79.078125 36.433594 79.347656 36.15625 79.683594 36.15625 L 85.609375 36.15625 C 85.941406 36.15625 86.214844 36.433594 86.214844 36.765625 L 86.214844 61.382812 C 86.214844 61.71875 85.941406 61.996094 85.609375 61.996094 Z M 85.609375 61.996094 "/>
<path style=" stroke:none;fill-rule:nonzero;fill:rgb(24.705882%,23.921569%,33.72549%);fill-opacity:1;" d="M 40.628906 48.867188 C 40.628906 49.550781 40.078125 50.101562 39.402344 50.101562 C 38.730469 50.101562 38.179688 49.550781 38.179688 48.867188 C 38.179688 48.191406 38.730469 47.640625 39.402344 47.640625 C 40.078125 47.640625 40.628906 48.191406 40.628906 48.867188 Z M 40.628906 48.867188 "/>
<path style=" stroke:none;fill-rule:nonzero;fill:rgb(24.705882%,23.921569%,33.72549%);fill-opacity:1;" d="M 51.4375 40.875 C 51.4375 41.554688 50.890625 42.105469 50.214844 42.105469 C 49.539062 42.105469 48.992188 41.554688 48.992188 40.875 C 48.992188 40.195312 49.539062 39.644531 50.214844 39.644531 C 50.890625 39.644531 51.4375 40.195312 51.4375 40.875 Z M 51.4375 40.875 "/>
<path style=" stroke:none;fill-rule:nonzero;fill:rgb(24.705882%,23.921569%,33.72549%);fill-opacity:1;" d="M 62.25 48.867188 C 62.25 49.550781 61.699219 50.101562 61.023438 50.101562 C 60.347656 50.101562 59.800781 49.550781 59.800781 48.867188 C 59.800781 48.191406 60.347656 47.640625 61.023438 47.640625 C 61.699219 47.640625 62.25 48.191406 62.25 48.867188 Z M 62.25 48.867188 "/>
<path style=" stroke:none;fill-rule:nonzero;fill:rgb(24.705882%,23.921569%,33.72549%);fill-opacity:1;" d="M 73.058594 36.980469 C 73.058594 37.65625 72.511719 38.207031 71.835938 38.207031 C 71.160156 38.207031 70.609375 37.65625 70.609375 36.980469 C 70.609375 36.296875 71.160156 35.746094 71.835938 35.746094 C 72.511719 35.746094 73.058594 36.296875 73.058594 36.980469 Z M 73.058594 36.980469 "/>
<path style=" stroke:none;fill-rule:nonzero;fill:rgb(24.705882%,23.921569%,33.72549%);fill-opacity:1;" d="M 83.867188 32.46875 C 83.867188 33.144531 83.320312 33.695312 82.644531 33.695312 C 81.96875 33.695312 81.421875 33.144531 81.421875 32.46875 C 81.421875 31.789062 81.96875 31.238281 82.644531 31.238281 C 83.320312 31.238281 83.867188 31.789062 83.867188 32.46875 Z M 83.867188 32.46875 "/>
<path style=" stroke:none;fill-rule:nonzero;fill:rgb(24.705882%,23.921569%,33.72549%);fill-opacity:1;" d="M 61.050781 49.148438 L 50.214844 40.988281 L 39.527344 49.035156 L 39.28125 48.707031 L 50.214844 40.472656 L 61 48.597656 L 71.71875 36.804688 L 71.761719 36.789062 L 82.570312 32.410156 L 82.722656 32.789062 L 71.953125 37.148438 Z M 61.050781 49.148438 "/>
<path style=" stroke:none;fill-rule:nonzero;fill:rgb(80%,80%,80%);fill-opacity:1;" d="M 222.65625 150.105469 L 132.558594 150.105469 C 132.429688 150.105469 132.320312 150 132.320312 149.867188 C 132.320312 149.738281 132.429688 149.628906 132.558594 149.628906 L 222.65625 149.628906 C 222.785156 149.628906 222.894531 149.738281 222.894531 149.867188 C 222.894531 150 222.785156 150.105469 222.65625 150.105469 Z M 222.65625 150.105469 "/>
</g>
</svg>
