<?xml version="1.0" encoding="UTF-8"?>
<svg xmlns="http://www.w3.org/2000/svg" xmlns:xlink="http://www.w3.org/1999/xlink" width="239px" height="150px" viewBox="0 0 238 150" version="1.1">
<g id="surface1">
<path style=" stroke:none;fill-rule:nonzero;fill:rgb(48.235294%,32.156863%,68.235294%);fill-opacity:1;" d="M 24.9375 48.839844 C 24.214844 48.839844 23.511719 48.605469 22.929688 48.175781 L 18.097656 44.652344 C 17.273438 44.050781 16.160156 44.050781 15.335938 44.652344 L 10.503906 48.175781 C 9.308594 49.046875 7.6875 49.046875 6.492188 48.175781 C 5.296875 47.304688 4.796875 45.757812 5.253906 44.347656 L 7.097656 38.648438 C 7.414062 37.675781 7.070312 36.613281 6.246094 36.011719 L 1.414062 32.488281 C 0.21875 31.617188 -0.28125 30.074219 0.175781 28.664062 C 0.628906 27.253906 1.941406 26.296875 3.417969 26.296875 L 9.390625 26.296875 C 10.410156 26.300781 11.3125 25.640625 11.625 24.667969 L 13.472656 18.96875 C 13.929688 17.558594 15.238281 16.601562 16.71875 16.601562 C 18.195312 16.601562 19.503906 17.558594 19.960938 18.96875 L 21.808594 24.667969 C 22.121094 25.640625 23.023438 26.300781 24.042969 26.296875 L 30.015625 26.296875 C 31.492188 26.296875 32.804688 27.253906 33.257812 28.664062 C 33.714844 30.074219 33.214844 31.617188 32.019531 32.488281 L 27.1875 36.011719 C 26.363281 36.613281 26.015625 37.675781 26.335938 38.648438 L 28.179688 44.347656 C 28.652344 45.757812 28.148438 47.3125 26.941406 48.175781 C 26.359375 48.605469 25.65625 48.839844 24.9375 48.839844 Z M 24.9375 48.839844 "/>
<path style=" stroke:none;fill-rule:nonzero;fill:rgb(48.235294%,32.156863%,68.235294%);fill-opacity:1;" d="M 73.90625 48.839844 C 73.183594 48.839844 72.480469 48.605469 71.902344 48.175781 L 67.070312 44.652344 C 66.246094 44.050781 65.128906 44.050781 64.304688 44.652344 L 59.472656 48.175781 C 58.277344 49.046875 56.660156 49.046875 55.464844 48.175781 C 54.269531 47.304688 53.765625 45.757812 54.222656 44.347656 L 56.070312 38.648438 C 56.386719 37.675781 56.042969 36.613281 55.214844 36.011719 L 50.382812 32.488281 C 49.1875 31.617188 48.6875 30.074219 49.144531 28.664062 C 49.601562 27.253906 50.910156 26.296875 52.390625 26.296875 L 58.363281 26.296875 C 59.378906 26.300781 60.285156 25.640625 60.597656 24.667969 L 62.441406 18.96875 C 62.898438 17.558594 64.210938 16.601562 65.6875 16.601562 C 67.164062 16.601562 68.476562 17.558594 68.933594 18.96875 L 70.777344 24.667969 C 71.089844 25.640625 71.992188 26.300781 73.011719 26.296875 L 78.984375 26.296875 C 80.464844 26.296875 81.773438 27.253906 82.230469 28.664062 C 82.6875 30.074219 82.1875 31.617188 80.992188 32.488281 L 76.160156 36.011719 C 75.332031 36.613281 74.988281 37.675781 75.304688 38.648438 L 77.152344 44.347656 C 77.625 45.757812 77.121094 47.3125 75.910156 48.175781 C 75.332031 48.605469 74.628906 48.839844 73.90625 48.839844 Z M 73.90625 48.839844 "/>
<path style=" stroke:none;fill-rule:nonzero;fill:rgb(24.705882%,23.921569%,33.72549%);fill-opacity:1;" d="M 106.011719 49.039062 C 105.21875 49.035156 104.449219 48.78125 103.808594 48.308594 C 102.480469 47.363281 101.929688 45.652344 102.449219 44.105469 L 104.296875 38.40625 C 104.566406 37.570312 104.269531 36.660156 103.5625 36.144531 L 98.730469 32.621094 C 97.417969 31.664062 96.867188 29.96875 97.371094 28.417969 C 97.871094 26.871094 99.308594 25.820312 100.933594 25.820312 L 106.90625 25.820312 C 107.78125 25.824219 108.554688 25.257812 108.820312 24.425781 L 110.667969 18.726562 C 111.167969 17.175781 112.609375 16.125 114.230469 16.125 C 115.855469 16.125 117.292969 17.175781 117.796875 18.726562 L 119.640625 24.425781 C 119.910156 25.257812 120.683594 25.824219 121.558594 25.820312 L 127.53125 25.820312 C 129.152344 25.820312 130.59375 26.871094 131.09375 28.417969 C 131.59375 29.96875 131.046875 31.664062 129.734375 32.621094 L 124.898438 36.144531 C 124.191406 36.660156 123.898438 37.570312 124.167969 38.40625 L 126.015625 44.105469 C 126.515625 45.652344 125.964844 47.351562 124.652344 48.308594 C 123.339844 49.265625 121.5625 49.265625 120.246094 48.308594 L 115.414062 44.785156 C 114.710938 44.269531 113.753906 44.269531 113.046875 44.785156 L 108.214844 48.308594 C 107.578125 48.78125 106.804688 49.035156 106.011719 49.039062 Z M 114.230469 42.660156 C 115.023438 42.660156 115.792969 42.910156 116.433594 43.378906 L 121.265625 46.902344 C 121.972656 47.414062 122.929688 47.414062 123.632812 46.902344 C 124.339844 46.386719 124.636719 45.472656 124.367188 44.640625 L 122.519531 38.941406 C 122.015625 37.394531 122.566406 35.695312 123.882812 34.738281 L 128.714844 31.214844 C 129.417969 30.699219 129.714844 29.789062 129.445312 28.957031 C 129.175781 28.125 128.402344 27.558594 127.53125 27.558594 L 121.558594 27.558594 C 119.933594 27.5625 118.492188 26.511719 117.992188 24.960938 L 116.148438 19.261719 C 115.878906 18.429688 115.105469 17.867188 114.230469 17.867188 C 113.359375 17.867188 112.585938 18.429688 112.316406 19.261719 L 110.46875 24.960938 C 109.972656 26.511719 108.53125 27.5625 106.90625 27.558594 L 100.933594 27.558594 C 100.0625 27.558594 99.289062 28.125 99.019531 28.957031 C 98.75 29.789062 99.042969 30.699219 99.75 31.214844 L 104.582031 34.738281 C 105.898438 35.695312 106.449219 37.394531 105.941406 38.941406 L 104.097656 44.640625 C 103.828125 45.472656 104.121094 46.386719 104.828125 46.902344 C 105.535156 47.414062 106.492188 47.414062 107.195312 46.902344 L 112.027344 43.378906 C 112.667969 42.910156 113.441406 42.660156 114.230469 42.660156 Z M 114.230469 42.660156 "/>
<path style=" stroke:none;fill-rule:nonzero;fill:rgb(48.235294%,32.156863%,68.235294%);fill-opacity:1;" d="M 196.933594 57.78125 L 185.0625 68.019531 L 166.453125 84.0625 L 163.941406 86.234375 C 163.476562 86.628906 163.1875 87.199219 163.144531 87.808594 C 163.109375 88.25 163.203125 88.6875 163.410156 89.078125 C 163.488281 89.222656 163.585938 89.359375 163.691406 89.484375 L 165.042969 91.0625 L 167.09375 93.460938 C 167.132812 93.5 167.167969 93.539062 167.210938 93.582031 C 168.058594 94.4375 169.421875 94.488281 170.335938 93.703125 L 191.4375 75.511719 L 203.332031 65.253906 C 204.292969 64.421875 204.402344 62.964844 203.574219 62 L 202.859375 61.160156 L 200.175781 58.027344 C 199.777344 57.5625 199.214844 57.277344 198.605469 57.230469 C 197.996094 57.183594 197.394531 57.382812 196.933594 57.78125 Z M 196.933594 57.78125 "/>
<path style=" stroke:none;fill-rule:nonzero;fill:rgb(48.235294%,32.156863%,68.235294%);fill-opacity:1;" d="M 224.910156 30.175781 C 224.910156 40.664062 216.433594 49.164062 205.980469 49.164062 C 195.527344 49.164062 187.054688 40.664062 187.054688 30.175781 C 187.054688 19.6875 195.527344 11.183594 205.980469 11.183594 C 216.433594 11.183594 224.910156 19.6875 224.910156 30.175781 Z M 224.910156 30.175781 "/>
<path style=" stroke:none;fill-rule:nonzero;fill:rgb(18.431373%,18.039216%,25.490196%);fill-opacity:1;" d="M 207.371094 103.921875 L 207.371094 147.570312 C 207.375 148.84375 208.402344 149.875 209.671875 149.878906 L 214.890625 149.878906 C 216.160156 149.875 217.1875 148.84375 217.191406 147.570312 L 217.191406 103.921875 C 217.1875 102.648438 216.160156 101.617188 214.890625 101.617188 L 209.671875 101.617188 C 208.402344 101.617188 207.375 102.648438 207.371094 103.921875 Z M 207.371094 103.921875 "/>
<path style=" stroke:none;fill-rule:nonzero;fill:rgb(18.431373%,18.039216%,25.490196%);fill-opacity:1;" d="M 196.339844 103.921875 L 196.339844 147.570312 C 196.339844 148.84375 197.371094 149.878906 198.640625 149.878906 L 203.859375 149.878906 C 205.128906 149.875 206.15625 148.84375 206.160156 147.570312 L 206.160156 103.921875 C 206.15625 102.648438 205.128906 101.617188 203.859375 101.617188 L 198.640625 101.617188 C 197.371094 101.617188 196.339844 102.648438 196.339844 103.921875 Z M 196.339844 103.921875 "/>
<path style=" stroke:none;fill-rule:nonzero;fill:rgb(18.431373%,18.039216%,25.490196%);fill-opacity:1;" d="M 198.460938 109.902344 C 194.480469 109.898438 190.722656 108.078125 188.242188 104.957031 C 185.761719 101.832031 184.832031 97.75 185.71875 93.855469 L 191.625 67.886719 C 191.632812 62.410156 194.691406 57.398438 199.546875 54.898438 C 204.40625 52.402344 210.25 52.839844 214.683594 56.035156 C 218.496094 58.78125 220.761719 63.203125 220.769531 67.914062 C 220.777344 68.148438 221.601562 92.300781 221.945312 103.460938 C 221.992188 105.003906 221.425781 106.5 220.371094 107.621094 C 219.3125 108.746094 217.855469 109.398438 216.316406 109.4375 L 198.882812 109.894531 C 198.742188 109.898438 198.601562 109.902344 198.460938 109.902344 Z M 198.460938 109.902344 "/>
<path style=" stroke:none;fill-rule:nonzero;fill:rgb(18.431373%,18.039216%,25.490196%);fill-opacity:1;" d="M 189.996094 38.570312 L 190.015625 37.859375 C 188.703125 37.824219 187.542969 37.738281 186.667969 37.101562 C 186.167969 36.714844 185.863281 36.128906 185.828125 35.496094 C 185.796875 35.105469 185.945312 34.726562 186.234375 34.46875 C 186.8125 33.976562 187.746094 34.136719 188.421875 34.449219 L 189.007812 34.71875 L 187.886719 26.488281 L 187.183594 26.585938 L 188.140625 33.585938 C 187.21875 33.3125 186.363281 33.429688 185.777344 33.925781 C 185.324219 34.324219 185.078125 34.914062 185.121094 35.519531 C 185.164062 36.371094 185.578125 37.160156 186.253906 37.675781 C 187.371094 38.496094 188.828125 38.535156 189.996094 38.570312 Z M 189.996094 38.570312 "/>
<path style=" stroke:none;fill-rule:nonzero;fill:rgb(18.431373%,18.039216%,25.490196%);fill-opacity:1;" d="M 191.933594 27.1875 L 195.746094 27.1875 L 195.746094 27.898438 L 191.933594 27.898438 Z M 191.933594 27.1875 "/>
<path style=" stroke:none;fill-rule:nonzero;fill:rgb(48.235294%,32.156863%,68.235294%);fill-opacity:1;" d="M 210.925781 61.328125 L 211.578125 77.023438 L 212.59375 101.617188 L 212.730469 104.941406 C 212.753906 105.554688 213.019531 106.128906 213.46875 106.542969 C 213.792969 106.84375 214.195312 107.042969 214.625 107.121094 C 214.789062 107.148438 214.953125 107.160156 215.121094 107.152344 L 217.191406 107.066406 L 220.335938 106.933594 C 220.394531 106.929688 220.445312 106.929688 220.503906 106.921875 C 221.699219 106.78125 222.585938 105.738281 222.535156 104.53125 L 221.386719 76.644531 L 220.738281 60.917969 C 220.679688 59.648438 219.609375 58.660156 218.34375 58.710938 L 217.242188 58.757812 L 213.128906 58.929688 C 212.519531 58.953125 211.945312 59.21875 211.53125 59.667969 C 211.117188 60.117188 210.902344 60.714844 210.925781 61.328125 Z M 210.925781 61.328125 "/>
<path style=" stroke:none;fill-rule:nonzero;fill:rgb(18.431373%,18.039216%,25.490196%);fill-opacity:1;" d="M 209.339844 62.652344 L 209.339844 74.71875 C 209.339844 75.96875 210.332031 76.988281 211.578125 77.023438 C 211.597656 77.023438 211.617188 77.027344 211.636719 77.023438 L 220.125 77.023438 C 220.261719 77.023438 220.398438 77.011719 220.53125 76.984375 C 220.835938 76.933594 221.128906 76.816406 221.386719 76.644531 C 222.03125 76.21875 222.421875 75.496094 222.421875 74.71875 L 222.421875 62.652344 C 222.417969 59.03125 219.492188 56.09375 215.882812 56.089844 C 215.433594 56.089844 214.984375 56.132812 214.542969 56.226562 C 211.511719 56.867188 209.34375 59.546875 209.339844 62.652344 Z M 209.339844 62.652344 "/>
<path style=" stroke:none;fill-rule:nonzero;fill:rgb(18.431373%,18.039216%,25.490196%);fill-opacity:1;" d="M 184.539062 67.6875 C 184.628906 67.976562 184.769531 68.242188 184.960938 68.472656 L 190.335938 75.0625 C 190.433594 75.183594 190.542969 75.292969 190.664062 75.390625 C 191.511719 76.082031 192.726562 76.082031 193.574219 75.386719 L 202.878906 67.746094 C 205.671875 65.449219 206.082031 61.3125 203.792969 58.507812 C 201.503906 55.703125 197.382812 55.289062 194.585938 57.585938 L 185.28125 65.226562 C 184.5625 65.820312 184.269531 66.792969 184.539062 67.6875 Z M 184.539062 67.6875 "/>
<path style=" stroke:none;fill-rule:nonzero;fill:rgb(18.431373%,18.039216%,25.490196%);fill-opacity:1;" d="M 203.082031 19.007812 C 199.929688 20.324219 196.535156 21.78125 193.039062 21.378906 C 190.175781 21.046875 187.425781 19.367188 186.765625 16.402344 C 186.136719 13.566406 187.4375 10.605469 189.515625 8.707031 C 191.863281 6.558594 195.105469 5.519531 198.199219 5.082031 C 200.070312 4.816406 202.144531 4.796875 203.867188 5.675781 C 205.25 6.378906 206.488281 7.648438 206.703125 9.246094 L 208.027344 8.886719 C 207.089844 7.292969 207.539062 5.363281 208.574219 3.929688 C 209.824219 2.210938 211.914062 1.492188 213.96875 1.433594 C 218.148438 1.3125 222.425781 3.257812 225.792969 5.613281 C 229.105469 7.941406 231.835938 11.011719 233.761719 14.582031 C 235.917969 18.589844 237.109375 23.386719 236.382812 27.9375 C 235.644531 32.570312 232.65625 36.964844 228.035156 38.359375 C 227.160156 38.621094 227.53125 40 228.414062 39.734375 C 232.824219 38.402344 236.085938 34.570312 237.335938 30.199219 C 238.777344 25.175781 237.785156 19.671875 235.578125 15.027344 C 233.621094 10.964844 230.703125 7.449219 227.074219 4.785156 C 223.449219 2.105469 218.75 -0.0507812 214.167969 0 C 211.535156 0.03125 208.988281 0.972656 207.394531 3.144531 C 206.035156 5 205.597656 7.5625 206.800781 9.605469 C 207.128906 10.167969 208.222656 9.984375 208.125 9.246094 C 207.625 5.507812 204.019531 3.585938 200.550781 3.503906 C 198.589844 3.496094 196.640625 3.785156 194.765625 4.363281 C 193.035156 4.839844 191.386719 5.59375 189.894531 6.597656 C 187.09375 8.542969 185.121094 11.652344 185.199219 15.15625 C 185.277344 18.648438 187.621094 21.332031 190.875 22.367188 C 195.164062 23.730469 199.515625 22.03125 203.460938 20.382812 C 203.832031 20.269531 204.046875 19.882812 203.957031 19.507812 C 203.851562 19.128906 203.460938 18.90625 203.082031 19.007812 Z M 203.082031 19.007812 "/>
<path style=" stroke:none;fill-rule:nonzero;fill:rgb(24.705882%,23.921569%,33.72549%);fill-opacity:1;" d="M 145.328125 88.984375 C 144.535156 88.980469 143.765625 88.722656 143.125 88.253906 C 141.796875 87.304688 141.242188 85.597656 141.765625 84.046875 L 143.609375 78.347656 C 143.882812 77.515625 143.585938 76.601562 142.878906 76.089844 L 138.046875 72.566406 C 136.730469 71.609375 136.183594 69.910156 136.683594 68.363281 C 137.1875 66.8125 138.625 65.765625 140.25 65.765625 L 146.222656 65.765625 C 147.09375 65.765625 147.867188 65.203125 148.136719 64.367188 L 149.984375 58.667969 C 150.484375 57.121094 151.921875 56.070312 153.546875 56.070312 C 155.171875 56.070312 156.609375 57.121094 157.109375 58.667969 L 158.957031 64.367188 C 159.226562 65.203125 160 65.765625 160.871094 65.765625 L 166.84375 65.765625 C 168.46875 65.765625 169.90625 66.8125 170.410156 68.363281 C 170.910156 69.910156 170.359375 71.609375 169.046875 72.566406 L 164.214844 76.089844 C 163.507812 76.601562 163.210938 77.515625 163.484375 78.347656 L 165.328125 84.046875 C 165.832031 85.597656 165.28125 87.292969 163.96875 88.25 C 162.65625 89.210938 160.875 89.210938 159.5625 88.25 L 154.730469 84.730469 C 154.023438 84.214844 153.066406 84.214844 152.363281 84.730469 L 147.53125 88.25 C 146.890625 88.722656 146.121094 88.980469 145.328125 88.984375 Z M 153.546875 82.601562 C 154.339844 82.601562 155.109375 82.855469 155.75 83.320312 L 160.582031 86.84375 C 161.289062 87.359375 162.242188 87.359375 162.949219 86.84375 C 163.65625 86.332031 163.949219 85.417969 163.679688 84.585938 L 161.835938 78.886719 C 161.332031 77.335938 161.878906 75.636719 163.195312 74.683594 L 168.027344 71.160156 C 168.734375 70.644531 169.03125 69.734375 168.761719 68.898438 C 168.492188 68.066406 167.71875 67.503906 166.84375 67.503906 L 160.871094 67.503906 C 159.246094 67.507812 157.808594 66.457031 157.308594 64.90625 L 155.460938 59.207031 C 155.191406 58.375 154.417969 57.808594 153.546875 57.808594 C 152.675781 57.808594 151.902344 58.375 151.632812 59.207031 L 149.785156 64.90625 C 149.285156 66.457031 147.847656 67.507812 146.222656 67.503906 L 140.25 67.503906 C 139.375 67.503906 138.601562 68.066406 138.332031 68.898438 C 138.0625 69.734375 138.359375 70.644531 139.0625 71.160156 L 143.898438 74.683594 C 145.214844 75.636719 145.761719 77.335938 145.257812 78.886719 L 143.414062 84.585938 C 143.140625 85.417969 143.4375 86.332031 144.144531 86.84375 C 144.851562 87.359375 145.804688 87.359375 146.511719 86.84375 L 151.34375 83.320312 C 151.984375 82.855469 152.753906 82.601562 153.546875 82.601562 Z M 153.546875 82.601562 "/>
</g>
</svg>
