<?xml version="1.0" encoding="UTF-8"?>
<svg xmlns="http://www.w3.org/2000/svg" xmlns:xlink="http://www.w3.org/1999/xlink" width="176px" height="150px" viewBox="0 0 176 150" version="1.1">
<g id="surface1">
<path style=" stroke:none;fill-rule:nonzero;fill:rgb(94.509804%,94.509804%,94.509804%);fill-opacity:1;" d="M 154.480469 144.332031 C 156.394531 148.082031 160.582031 149.75 160.582031 149.75 C 160.582031 149.75 161.664062 145.355469 159.746094 141.605469 C 157.832031 137.863281 153.644531 136.1875 153.644531 136.1875 C 153.644531 136.1875 152.5625 140.589844 154.480469 144.332031 Z M 154.480469 144.332031 "/>
<path style=" stroke:none;fill-rule:nonzero;fill:rgb(94.509804%,94.509804%,94.509804%);fill-opacity:1;" d="M 155.871094 143.140625 C 159.417969 145.382812 160.714844 149.722656 160.714844 149.722656 C 160.714844 149.722656 156.265625 150.425781 152.71875 148.1875 C 149.171875 145.945312 147.875 141.605469 147.875 141.605469 C 147.875 141.605469 152.324219 140.902344 155.871094 143.140625 Z M 155.871094 143.140625 "/>
<path style=" stroke:none;fill-rule:nonzero;fill:rgb(100%,71.764706%,71.764706%);fill-opacity:1;" d="M 106.042969 147.160156 L 103.558594 147.160156 L 102.375 137.511719 L 106.042969 137.511719 Z M 106.042969 147.160156 "/>
<path style=" stroke:none;fill-rule:nonzero;fill:rgb(18.431373%,18.039216%,25.490196%);fill-opacity:1;" d="M 106.675781 149.582031 L 98.660156 149.582031 L 98.660156 149.484375 C 98.660156 147.75 100.058594 146.34375 101.78125 146.34375 L 106.675781 146.34375 Z M 106.675781 149.582031 "/>
<path style=" stroke:none;fill-rule:nonzero;fill:rgb(100%,71.764706%,71.764706%);fill-opacity:1;" d="M 121.457031 147.160156 L 118.972656 147.160156 L 117.789062 137.511719 L 121.457031 137.511719 Z M 121.457031 147.160156 "/>
<path style=" stroke:none;fill-rule:nonzero;fill:rgb(18.431373%,18.039216%,25.490196%);fill-opacity:1;" d="M 122.09375 149.582031 L 114.074219 149.582031 L 114.074219 149.484375 C 114.074219 147.75 115.472656 146.34375 117.195312 146.34375 L 122.09375 146.34375 Z M 122.09375 149.582031 "/>
<path style=" stroke:none;fill-rule:nonzero;fill:rgb(100%,71.764706%,71.764706%);fill-opacity:1;" d="M 114.238281 92.828125 L 109.347656 82.925781 L 110.605469 74.710938 L 104.722656 73.082031 L 104.113281 84.097656 L 111.742188 94.519531 C 111.589844 95.609375 112.324219 96.621094 113.394531 96.8125 C 114.476562 97.003906 115.507812 96.304688 115.734375 95.230469 C 115.960938 94.152344 115.296875 93.089844 114.238281 92.828125 Z M 114.238281 92.828125 "/>
<path style=" stroke:none;fill-rule:nonzero;fill:rgb(100%,71.764706%,71.764706%);fill-opacity:1;" d="M 124.824219 92.828125 L 129.714844 82.925781 L 128.453125 74.710938 L 134.335938 73.082031 L 134.945312 84.097656 L 127.316406 94.519531 C 127.46875 95.609375 126.738281 96.621094 125.660156 96.8125 C 124.585938 97.003906 123.550781 96.304688 123.328125 95.230469 C 123.101562 94.152344 123.761719 93.089844 124.824219 92.828125 Z M 124.824219 92.828125 "/>
<path style=" stroke:none;fill-rule:nonzero;fill:rgb(100%,72.54902%,72.54902%);fill-opacity:1;" d="M 126.90625 53.601562 C 126.90625 56.578125 124.507812 58.988281 121.558594 58.988281 C 118.601562 58.988281 116.203125 56.578125 116.203125 53.601562 C 116.203125 50.632812 118.601562 48.222656 121.558594 48.222656 C 124.507812 48.222656 126.90625 50.632812 126.90625 53.601562 Z M 126.90625 53.601562 "/>
<path style=" stroke:none;fill-rule:nonzero;fill:rgb(18.431373%,18.039216%,25.490196%);fill-opacity:1;" d="M 116.246094 53.574219 C 116.246094 53.574219 115.664062 52.699219 115.886719 51.753906 C 116.023438 51.222656 116.074219 50.667969 116.046875 50.117188 C 116.292969 49.300781 116.605469 48.5 116.980469 47.738281 C 117.453125 46.882812 117.230469 46.523438 118.703125 46.253906 C 120.175781 45.980469 119.574219 44.050781 123.457031 46.140625 C 123.726562 46.515625 124.195312 46.695312 124.640625 46.589844 C 125.445312 46.433594 125.738281 47.558594 125.738281 47.558594 C 125.738281 47.558594 126.273438 47.242188 126.472656 47.691406 C 126.675781 48.140625 128.105469 47.417969 128.105469 50.453125 C 128.105469 53.484375 126.476562 56.195312 126.476562 56.195312 C 126.476562 56.195312 125.332031 59.828125 122.675781 59.3125 C 120.015625 58.792969 119.632812 59.105469 117.804688 55.640625 C 117.433594 56.722656 116.859375 52.605469 116.246094 53.574219 Z M 116.246094 53.574219 "/>
<path style=" stroke:none;fill-rule:nonzero;fill:rgb(18.431373%,18.039216%,25.490196%);fill-opacity:1;" d="M 109.792969 88.378906 L 109.175781 90.828125 C 109.175781 90.828125 106.253906 92.242188 105.082031 105 L 103.507812 124.121094 L 101.105469 144.160156 L 106.101562 144.554688 L 109.566406 131.855469 L 117.054688 105.160156 L 118.472656 125.355469 L 116.890625 143.65625 L 122.164062 143.863281 L 125.820312 123.464844 C 125.820312 123.464844 131.414062 93.585938 127.804688 92.714844 L 127.441406 89.605469 Z M 109.792969 88.378906 "/>
<path style=" stroke:none;fill-rule:nonzero;fill:rgb(24.705882%,23.921569%,33.72549%);fill-opacity:1;" d="M 108.636719 65.378906 L 117.246094 60.609375 L 124.550781 61.003906 L 133.277344 66.195312 L 129.640625 89.042969 C 129.640625 89.042969 131.726562 91.386719 125.425781 90.699219 C 119.125 90.011719 108.941406 89.453125 108.941406 89.453125 C 108.941406 89.453125 108.121094 87.816406 109.871094 87.585938 C 111.617188 87.359375 110.15625 87.410156 110.15625 87.410156 C 110.15625 87.410156 109.097656 84 110.15625 83.335938 L 110.667969 76.320312 Z M 108.636719 65.378906 "/>
<path style=" stroke:none;fill-rule:nonzero;fill:rgb(24.705882%,23.921569%,33.72549%);fill-opacity:1;" d="M 111.011719 65.734375 L 108.640625 65.378906 L 103.609375 74.40625 L 111.78125 78.03125 Z M 111.011719 65.734375 "/>
<path style=" stroke:none;fill-rule:nonzero;fill:rgb(24.705882%,23.921569%,33.72549%);fill-opacity:1;" d="M 130.480469 67.367188 L 133.277344 66.195312 L 136.058594 78.894531 L 128.515625 80.332031 Z M 130.480469 67.367188 "/>
<path style=" stroke:none;fill-rule:nonzero;fill:rgb(79.607843%,79.607843%,79.607843%);fill-opacity:1;" d="M 65.921875 149.910156 L 175.425781 149.910156 C 175.550781 149.910156 175.648438 149.808594 175.648438 149.6875 C 175.648438 149.5625 175.550781 149.460938 175.425781 149.460938 L 65.921875 149.460938 C 65.796875 149.460938 65.699219 149.5625 65.699219 149.6875 C 65.699219 149.808594 65.796875 149.910156 65.921875 149.910156 Z M 65.921875 149.910156 "/>
<path style=" stroke:none;fill-rule:nonzero;fill:rgb(100%,100%,100%);fill-opacity:1;" d="M 25.742188 89.550781 L 54.183594 89.550781 L 54.183594 103.964844 L 25.742188 103.964844 Z M 25.742188 89.550781 "/>
<path style=" stroke:none;fill-rule:nonzero;fill:rgb(39.607843%,20.392157%,58.823529%);fill-opacity:1;" d="M 29.105469 93.238281 L 50.828125 93.238281 L 50.828125 93.980469 L 29.105469 93.980469 Z M 29.105469 93.238281 "/>
<path style=" stroke:none;fill-rule:nonzero;fill:rgb(39.607843%,20.392157%,58.823529%);fill-opacity:1;" d="M 29.105469 96.386719 L 50.828125 96.386719 L 50.828125 97.128906 L 29.105469 97.128906 Z M 29.105469 96.386719 "/>
<path style=" stroke:none;fill-rule:nonzero;fill:rgb(39.607843%,20.392157%,58.823529%);fill-opacity:1;" d="M 29.105469 99.535156 L 50.828125 99.535156 L 50.828125 100.273438 L 29.105469 100.273438 Z M 29.105469 99.535156 "/>
<path style=" stroke:none;fill-rule:nonzero;fill:rgb(24.705882%,23.921569%,33.72549%);fill-opacity:1;" d="M 54.410156 104.191406 L 25.519531 104.191406 L 25.519531 89.324219 L 54.410156 89.324219 Z M 25.96875 103.738281 L 53.960938 103.738281 L 53.960938 89.777344 L 25.96875 89.777344 Z M 25.96875 103.738281 "/>
<path style=" stroke:none;fill-rule:nonzero;fill:rgb(39.607843%,20.392157%,58.823529%);fill-opacity:1;" d="M 33.75 71.644531 C 27.726562 71.652344 21.824219 69.96875 16.703125 66.78125 L 16.574219 66.699219 L 16.65625 66.570312 L 33.664062 38.882812 L 66.171875 38.882812 L 66.171875 39.039062 C 66.171875 57.019531 51.625 71.644531 33.75 71.644531 Z M 33.75 71.644531 "/>
<path style=" stroke:none;fill-rule:nonzero;fill:rgb(94.509804%,94.509804%,94.509804%);fill-opacity:1;" d="M 12.890625 59.894531 L 12.789062 59.828125 C 0.859375 52.410156 -3.082031 36.824219 3.867188 24.574219 L 3.929688 24.464844 L 26.636719 37.515625 Z M 12.890625 59.894531 "/>
<path style=" stroke:none;fill-rule:nonzero;fill:rgb(39.607843%,20.392157%,58.823529%);fill-opacity:1;" d="M 66.171875 34.515625 L 33.558594 34.515625 L 40.585938 2.480469 L 40.738281 2.511719 C 55.59375 5.816406 66.167969 19.058594 66.171875 34.363281 Z M 66.171875 34.515625 "/>
<path style=" stroke:none;fill-rule:nonzero;fill:rgb(94.509804%,94.509804%,94.509804%);fill-opacity:1;" d="M 28.363281 29.46875 L 6.265625 16.773438 L 6.324219 16.664062 C 11.820312 7.007812 22.921875 2.058594 33.730469 4.449219 L 33.847656 4.476562 Z M 28.363281 29.46875 "/>
<path style=" stroke:none;fill-rule:nonzero;fill:rgb(100%,100%,100%);fill-opacity:1;" d="M 82.628906 0.222656 L 111.066406 0.222656 L 111.066406 14.640625 L 82.628906 14.640625 Z M 82.628906 0.222656 "/>
<path style=" stroke:none;fill-rule:nonzero;fill:rgb(39.607843%,20.392157%,58.823529%);fill-opacity:1;" d="M 85.984375 3.914062 L 107.707031 3.914062 L 107.707031 4.65625 L 85.984375 4.65625 Z M 85.984375 3.914062 "/>
<path style=" stroke:none;fill-rule:nonzero;fill:rgb(39.607843%,20.392157%,58.823529%);fill-opacity:1;" d="M 85.984375 7.0625 L 107.707031 7.0625 L 107.707031 7.804688 L 85.984375 7.804688 Z M 85.984375 7.0625 "/>
<path style=" stroke:none;fill-rule:nonzero;fill:rgb(39.607843%,20.392157%,58.823529%);fill-opacity:1;" d="M 85.984375 10.210938 L 107.707031 10.210938 L 107.707031 10.949219 L 85.984375 10.949219 Z M 85.984375 10.210938 "/>
<path style=" stroke:none;fill-rule:nonzero;fill:rgb(24.705882%,23.921569%,33.72549%);fill-opacity:1;" d="M 111.292969 14.867188 L 82.402344 14.867188 L 82.402344 0 L 111.292969 0 Z M 82.851562 14.414062 L 110.84375 14.414062 L 110.84375 0.449219 L 82.851562 0.449219 Z M 82.851562 14.414062 "/>
<path style=" stroke:none;fill-rule:nonzero;fill:rgb(24.705882%,23.921569%,33.72549%);fill-opacity:1;" d="M 39.804688 52.246094 L 40.25 52.246094 L 40.25 89.324219 L 39.804688 89.324219 Z M 39.804688 52.246094 "/>
<path style=" stroke:none;fill-rule:nonzero;fill:rgb(24.705882%,23.921569%,33.72549%);fill-opacity:1;" d="M 48.894531 22.746094 L 82.515625 7.449219 L 82.699219 7.859375 L 49.078125 23.15625 Z M 48.894531 22.746094 "/>
</g>
</svg>
